# xmcd CD database file
# Copyright (C) 1993-1997  Ti Kan
#
# Track frame offsets:
#	150
#	11175
#	25575
#	41625
#	52500
#	65625
#	81900
#	94200
#	120300
#	130425
#	141600
#
# Disc length: 2013 seconds
#
# Revision: 1
# Processed by: cddbd v1.4b41PL1 Copyright (c) Steve Scherf et al.
# Submitted via: xmcd 2.1 PL2
#
DISCID=9407db0b
DTITLE=Omar And The Howlers - Big Leg Beat
DYEAR=1900
DGENRE=
TTITLE0=I Don't Know Why
TTITLE1=Someday Baby
TTITLE2=Blues Parcel Post
TTITLE3=Diesel Don Juan
TTITLE4=St. Louis Bound
TTITLE5=Hoy, Hoy, Hoy
TTITLE6=Caledonia
TTITLE7=Everybody Knows About My Good Thing
TTITLE8=Roadrunner
TTITLE9=Up The Line
TTITLE10=Big Brown Shoes
EXTD=
EXTT0=
EXTT1=
EXTT2=
EXTT3=
EXTT4=
EXTT5=
EXTT6=
EXTT7=
EXTT8=
EXTT9=
EXTT10=
PLAYORDER=
